<?xml version="1.0" standalone="no"?>
<!DOCTYPE svg PUBLIC "-//W3C//DTD SVG 20010904//EN"
 "http://www.w3.org/TR/2001/REC-SVG-20010904/DTD/svg10.dtd">
<svg version="1.0" xmlns="http://www.w3.org/2000/svg"
 width="1200.000000pt" height="1200.000000pt" viewBox="0 0 1200.000000 1200.000000"
 preserveAspectRatio="xMidYMid meet">
<metadata>
Created by potrace 1.11, written by Peter Selinger 2001-2013
</metadata>
<g transform="translate(0.000000,1200.000000) scale(0.100000,-0.100000)"
fill="#000000" stroke="none">
<path d="M0 6000 l0 -6000 6000 0 6000 0 0 6000 0 6000 -6000 0 -6000 0 0
-6000z m9321 5191 c24 -15 91 -59 149 -96 58 -37 146 -95 197 -129 l92 -61 1
-98 c0 -63 -4 -96 -10 -92 -5 3 -10 34 -10 69 0 34 -3 65 -6 68 -3 4 -24 -6
-47 -22 -79 -52 -222 -145 -232 -150 -42 -22 -157 -105 -170 -122 -22 -32 -23
-756 -1 -764 8 -3 73 33 148 82 158 103 220 143 271 173 35 21 37 26 37 71 0
27 5 52 10 55 6 3 10 0 11 -7 1 -7 2 -29 4 -48 2 -19 0 -42 -4 -51 -5 -15
-152 -129 -166 -129 -2 0 -54 -34 -116 -75 -61 -41 -113 -75 -116 -75 -2 0
-21 -11 -41 -25 -20 -14 -45 -25 -55 -25 -10 0 -75 37 -145 83 -70 45 -152 98
-182 117 -30 19 -56 38 -58 42 -2 5 -8 8 -13 8 -4 0 -29 14 -54 32 l-45 32 0
426 0 427 93 60 c50 33 134 88 186 122 52 33 96 61 98 61 2 0 25 16 51 35 26
19 54 35 63 35 8 0 35 -13 60 -29z m667 -430 c15 -10 59 -39 97 -63 39 -25
136 -89 218 -142 l147 -97 0 -110 c0 -84 -3 -110 -12 -107 -9 3 -14 31 -16 81
-2 50 -7 77 -14 77 -7 0 -28 -11 -47 -23 -20 -13 -61 -40 -91 -59 -153 -97
-267 -173 -287 -191 l-23 -20 0 -380 c0 -356 1 -379 18 -375 14 4 203 125 394
251 29 20 48 40 49 52 3 51 5 60 14 63 6 1 10 -22 10 -55 l0 -58 -63 -40 c-35
-22 -143 -93 -241 -157 -99 -65 -186 -118 -195 -118 -9 0 -73 38 -143 84 -71
46 -174 113 -230 150 -56 36 -109 73 -117 82 -23 22 -23 184 -1 184 12 0 15
-15 15 -78 l0 -77 63 -42 c126 -84 388 -253 392 -253 3 0 5 175 5 388 l0 389
-142 94 c-78 52 -146 95 -150 97 -4 2 -37 23 -75 48 -37 24 -73 44 -80 44 -10
0 -13 -47 -13 -225 0 -193 -2 -225 -15 -225 -13 0 -15 34 -15 249 l0 249 31
26 c17 15 84 61 150 104 66 42 161 105 212 139 50 33 100 62 110 62 10 1 30
-7 45 -18z m788 -504 c60 -40 168 -110 239 -156 72 -46 136 -91 143 -99 9 -12
12 -114 12 -434 0 -321 -3 -420 -12 -428 -32 -28 -484 -320 -496 -320 -7 0
-23 5 -35 12 -22 11 -324 208 -425 276 l-53 36 3 115 c2 95 6 116 18 116 12 0
16 -20 20 -102 l5 -102 140 -92 c77 -50 173 -113 214 -140 40 -27 77 -46 82
-43 5 3 9 173 9 379 l0 373 -62 40 c-35 22 -85 56 -113 75 -69 47 -215 141
-244 156 -15 9 -26 10 -30 3 -3 -6 -5 -93 -5 -194 1 -100 -3 -191 -8 -200 -23
-46 -28 -8 -28 226 l0 245 53 36 c135 94 443 294 453 294 6 1 60 -32 120 -72z
m-2436 -241 c0 -7 -6 -19 -14 -25 -17 -15 -16 -102 3 -124 12 -16 -182 -17
-2765 -17 -1854 0 -2817 -4 -2894 -11 -506 -46 -976 -325 -1269 -754 -147
-215 -237 -443 -281 -710 -20 -117 -20 -180 -20 -2910 0 -2730 0 -2793 20
-2910 63 -386 234 -713 512 -981 255 -247 547 -396 908 -465 l125 -24 2820 0
2820 0 117 23 c379 74 688 238 946 502 242 247 397 548 474 917 9 44 13 745
17 2948 l6 2890 65 3 c36 2 69 7 74 13 6 5 18 9 28 9 17 0 18 -112 18 -2833 0
-3085 2 -2961 -56 -3190 -37 -148 -77 -256 -144 -392 -279 -568 -811 -959
-1435 -1055 -128 -19 -181 -20 -2940 -20 -2718 0 -2814 1 -2925 19 -159 27
-194 36 -334 82 -476 161 -871 508 -1101 966 -92 184 -147 358 -182 575 -17
107 -18 255 -18 2923 0 2634 1 2817 18 2921 99 624 469 1145 1017 1431 189 98
431 175 638 202 37 5 1346 9 2910 10 2408 1 2842 -1 2842 -13z m-4223 -2048
c6 -7 17 -33 26 -58 14 -41 170 -468 239 -655 16 -44 58 -159 93 -255 34 -96
68 -186 74 -200 6 -14 58 -158 117 -320 59 -162 163 -448 231 -635 68 -187
164 -450 213 -585 49 -135 135 -369 190 -520 56 -151 136 -371 178 -487 l77
-213 3 1970 2 1970 1043 -1 c961 -1 1052 -2 1174 -20 344 -48 613 -165 844
-366 259 -225 428 -545 480 -908 18 -125 16 -358 -5 -480 -71 -425 -320 -772
-696 -968 -47 -24 -106 -52 -132 -62 -27 -10 -48 -22 -48 -28 0 -5 17 -42 39
-81 21 -39 89 -170 151 -291 62 -121 127 -247 145 -280 18 -33 81 -154 140
-270 101 -197 141 -275 299 -577 35 -68 105 -204 156 -303 51 -99 108 -209
127 -245 18 -35 33 -68 33 -72 0 -4 -252 -8 -559 -8 l-559 0 -73 148 c-40 81
-137 280 -217 442 -79 162 -188 385 -242 495 -54 110 -168 344 -255 520 -86
176 -161 330 -166 343 l-9 22 -350 0 -350 0 0 -985 0 -985 -809 0 -808 0 -144
433 -144 432 -881 3 -881 2 -26 -77 c-14 -43 -72 -211 -128 -373 -55 -162
-110 -323 -121 -357 l-19 -63 -504 0 c-408 0 -505 3 -505 13 0 7 27 87 60 178
33 90 112 306 175 479 63 173 180 495 260 715 80 220 195 537 256 705 61 168
124 339 139 380 15 41 79 219 143 395 64 176 182 500 262 720 80 220 196 537
257 705 60 168 123 341 139 385 17 44 44 118 61 165 16 47 34 93 39 103 9 16
38 17 383 17 287 0 376 -3 383 -12z"/>
<path d="M9158 11126 c-304 -197 -338 -221 -336 -236 2 -8 45 -42 95 -75 350
-229 356 -232 383 -200 7 8 16 15 21 15 5 0 34 17 66 39 32 21 118 77 191 125
72 47 132 92 132 100 0 7 -65 56 -145 107 -80 52 -178 115 -218 141 -39 26
-76 47 -82 47 -5 0 -54 -29 -107 -63z"/>
<path d="M8797 10853 c-9 -9 -9 -765 1 -779 4 -6 54 -42 112 -79 58 -37 152
-99 209 -137 96 -63 131 -79 131 -60 0 71 1 742 0 753 0 14 -60 58 -182 134
-96 59 -236 150 -249 161 -9 8 -19 11 -22 7z"/>
<path d="M9845 10682 c-152 -97 -324 -214 -336 -228 -9 -11 16 -31 123 -100
73 -48 173 -113 222 -145 49 -32 94 -56 100 -52 6 4 63 40 126 81 63 40 148
95 188 120 98 63 124 85 114 98 -13 20 -421 284 -438 284 -5 0 -49 -26 -99
-58z m-85 -238 c0 -81 -4 -123 -10 -119 -6 4 -10 55 -10 119 0 99 4 126 17
126 2 0 3 -57 3 -126z"/>
<path d="M10595 10236 c-28 -19 -123 -82 -212 -140 -90 -59 -163 -110 -163
-115 0 -5 7 -12 16 -15 9 -4 105 -65 214 -136 108 -72 202 -130 209 -130 7 0
49 25 93 55 44 30 81 55 83 55 1 0 52 33 113 73 60 39 118 77 128 83 11 6 15
15 10 23 -8 12 -353 243 -403 269 -30 17 -33 16 -88 -22z m-145 -252 c0 -72
-3 -95 -12 -92 -14 5 -23 125 -13 165 13 53 25 18 25 -73z"/>
<path d="M11055 9896 c-27 -19 -123 -82 -212 -140 l-163 -105 0 -376 c0 -313
2 -375 14 -375 13 0 69 36 331 209 l100 66 3 378 c2 298 0 377 -10 377 -7 0
-35 -16 -63 -34z"/>
<path d="M6537 7104 c-4 -4 -7 -297 -7 -651 l0 -643 458 -1 c534 -2 517 -2
604 11 186 28 348 127 444 271 72 108 96 189 102 339 5 145 -8 211 -63 329
-51 107 -162 216 -276 271 -160 75 -142 74 -729 78 -289 2 -529 0 -533 -4z"/>
<path d="M3750 6474 c-7 -16 -20 -54 -30 -84 -10 -30 -50 -147 -90 -260 -39
-113 -93 -268 -120 -345 -98 -284 -140 -405 -210 -605 -77 -219 -160 -462
-160 -467 0 -2 275 -3 610 -3 336 0 610 2 610 5 0 5 -114 346 -414 1239 -171
507 -186 547 -196 520z"/>
</g>
</svg>
